<svg width="68" height="68" fill="none" xmlns="http://www.w3.org/2000/svg"><path d="M65.507 5.608a8.515 8.515 0 0 1 0 12.04l-7.495 7.498-15.16-15.154 7.499-7.5a8.522 8.522 0 0 1 12.045 0l3.111 3.116ZM5.97 46.886 39.844 13l15.16 15.152L21.11 62.029a7.544 7.544 0 0 1-3.218 1.9L4.067 67.88a3.016 3.016 0 0 1-3.132-.93 2.925 2.925 0 0 1-.812-3.018l3.953-13.828a7.371 7.371 0 0 1 1.893-3.217Zm27.19-33.214L13.749 33.084 2.125 21.45a6.374 6.374 0 0 1 0-9.02L12.505 2.05a6.376 6.376 0 0 1 9.02 0l2.633 2.627c-.04.038-.093.08-.133.123l-8.512 8.512a2.124 2.124 0 1 0 3.004 3.005l8.513-8.507c.04-.042-.027-.088.12-.133l6.01 5.996ZM60.323 40.85a1.072 1.072 0 0 0-.132.12l-8.51 8.508a2.125 2.125 0 0 0 3.005 3.005l8.51-8.51c.04-.159-.027-.093.12-.132l2.632 2.633a6.375 6.375 0 0 1 0 9.014L55.563 65.871a6.375 6.375 0 0 1-9.014 0L34.915 54.25 54.327 34.84l5.995 6.009Z" fill="#A68F4B"/></svg>