<svg width="154" height="38" fill="none" xmlns="http://www.w3.org/2000/svg"><path d="M106.531 27.372c1.556.02 3.1-.28 4.534-.882a27.139 27.139 0 0 0 4.053-2.243l6.345 8.31a13.832 13.832 0 0 1-3.376 2.305 20.806 20.806 0 0 1-3.942 1.41 29.45 29.45 0 0 1-4.361.747 51.495 51.495 0 0 1-4.62.209 47.97 47.97 0 0 1-4.805-.245 46.575 46.575 0 0 1-4.472-.65 35.856 35.856 0 0 1-3.881-.968 20.38 20.38 0 0 1-3.031-1.226l11.445-22.923h-8.537V.588h26.204l-12.505 26.784h.949Zm34.792-12.49a6.025 6.025 0 0 0-1.479-2.085 7.016 7.016 0 0 0-2.23-1.41 6.991 6.991 0 0 0-5.383 0 6.784 6.784 0 0 0-3.696 3.494 6.01 6.01 0 0 0 0 5.1 6.785 6.785 0 0 0 3.696 3.493 6.986 6.986 0 0 0 5.383 0 7.018 7.018 0 0 0 2.23-1.41 6.024 6.024 0 0 0 1.479-2.083 6.277 6.277 0 0 0 0-5.1Zm10.472 9.475a17.939 17.939 0 0 1-3.943 5.577 18.231 18.231 0 0 1-5.876 3.751 19.807 19.807 0 0 1-14.378 0 18.023 18.023 0 0 1-9.782-9.328 16.774 16.774 0 0 1 0-13.656 17.799 17.799 0 0 1 3.943-5.565 19.213 19.213 0 0 1 5.839-3.75 19.348 19.348 0 0 1 14.378 0 19.093 19.093 0 0 1 5.864 3.75 17.586 17.586 0 0 1 3.942 5.565 16.758 16.758 0 0 1 0 13.656h.013Zm-70.816-13.14v23.29H69.83v-23.29h-6.874V.587h24.837v10.628H80.98Zm-30.886.17a2.575 2.575 0 0 0-1.897-.771H46.47v5.197h1.725a2.59 2.59 0 0 0 1.897-.772 2.55 2.55 0 0 0 .787-1.839 2.54 2.54 0 0 0-.787-1.839v.025Zm7.712 11.205 7.762 11.853H53.592c-1.733-2.451-3.08-4.29-4.041-5.516a26.996 26.996 0 0 0-2.07-2.452c-.43-.416-.69-.551-.764-.416a.831.831 0 0 0-.123.441v7.943H35.506V.588h13.577c1.64.002 3.26.367 4.743 1.067 1.487.67 2.837 1.61 3.98 2.77a12.672 12.672 0 0 1 2.87 4.156c.623 1.508.937 3.125.924 4.756a12.96 12.96 0 0 1-.973 4.903 13.476 13.476 0 0 1-2.822 4.352Zm-40.73-8.85-1.897 7.256h3.696l-1.798-7.257Zm5.754 20.703-1.072-3.886H12.32l-1.06 3.886H0L10.965.588h12.16l10.964 33.857H22.83Z" fill="#141414"/></svg>