<svg width="109" height="32" fill="none" xmlns="http://www.w3.org/2000/svg"><path d="M4.888 31.04c-1.81 0-3.066-.368-3.786-1.115a5.203 5.203 0 0 1-1.08-3.675V3.821A3.653 3.653 0 0 1 1.072.98a3.647 3.647 0 0 1 2.6-.97h8.203l1.08 5.818H6.98c-.37 0-.555.194-.555.602v18.23c0 .407.185.601.555.601h5.976l-1.12 5.818-6.948-.038Zm16.204-3.878-.565 3.879H14.25L19.875.01h6.657l5.606 31.03H25.89l-.565-3.88h-4.233Zm.68-4.926h2.92l-1.469-10.968-1.45 10.968ZM46.114.01a3.545 3.545 0 0 1 2.774 1.028c.642.764.972 1.74.924 2.735v14.855a6.752 6.752 0 0 1-.194 1.649c-.126.488-.37.937-.71 1.309a3.477 3.477 0 0 1-1.373.873c-.692.231-1.42.34-2.15.32H40.06v8.262h-6.19V.01h12.243ZM40.06 5.45v12.19h3.094c.253 0 .419-.05.487-.146a.812.812 0 0 0 .107-.495V6.042c0-.398-.185-.592-.555-.592H40.06ZM64.672.01 66.2 5.828h-4.146v25.213H55.7V5.828h-4.165L53.159.01h11.513Zm6.667 27.152-.555 3.879h-6.277L70.093.01h6.667l5.625 31.03h-6.239l-.554-3.88h-4.253Zm.7-4.849h2.92l-1.47-11.045-1.45 11.045ZM84.127.01h6.228v31.03h-6.228V.01Zm8.817 0h5.927l3.182 12.451V.011h6.404v31.03h-6.404l-3.348-12.965V31.04h-5.76V.01Z" fill="#141414"/></svg>