<svg width="148" height="38" fill="none" xmlns="http://www.w3.org/2000/svg"><path d="M34.052 30.614a21.271 21.271 0 0 1-7.086 5.307 21.371 21.371 0 0 1-8.645 1.972C7.316 37.893 0 30.875 0 19.356c0-11.875 8.975-19 15.779-19a9.65 9.65 0 0 1 4.43.822 9.603 9.603 0 0 1 3.567 2.74l1.193-2.885h8.152V15.64h-9.25c-.155-3.348-1.814-6.495-5.502-6.495-3.688 0-6.17 4.595-6.17 10.212 0 5.118 2.649 9.714 7.578 9.714 4.357 0 7.782-4.548 8.247-5.059l6.028 6.603ZM52.958.986v6.816h-3.223v7.79h9.859v-7.79h-3.056V.986h16.865v6.816H70.42v22.456h2.984v6.816H56.538v-6.816h3.056v-7.802h-9.859v7.802h3.223v6.816h-16.83v-6.816h2.865V7.802H36.13V.986h16.829ZM75.48 18.798C75.48 7.695 82.964 0 93.705 0c12.724 0 18.644 7.588 18.644 19.202S105.796 38 94.064 38c-10.85 0-18.584-6.246-18.584-19.154v-.048Zm23.871.356c0-6.246-1.707-11.245-5.705-11.245-3.175 0-5.347 4.489-5.347 10.89 0 6.768 2.387 11.043 5.753 11.043 3.365 0 5.31-4.228 5.31-10.64l-.011-.048ZM148 30.614a21.275 21.275 0 0 1-7.086 5.307 21.374 21.374 0 0 1-8.645 1.972c-11.004 0-18.321-7.018-18.321-18.537 0-11.875 8.976-19 15.779-19a9.647 9.647 0 0 1 4.43.822 9.602 9.602 0 0 1 3.567 2.74l1.193-2.885h8.152V15.64h-9.298c-.155-3.348-1.814-6.495-5.502-6.495-3.688 0-6.171 4.595-6.171 10.212 0 5.118 2.65 9.714 7.579 9.714 4.357 0 7.782-4.548 8.248-5.059L148 30.614Z" fill="#141414"/></svg>