<svg width="60" height="68" fill="none" xmlns="http://www.w3.org/2000/svg"><path d="M30.001 42.5a17.17 17.17 0 0 0 11.302-4.262 16.9 16.9 0 0 0 5.627-10.613H13.072c.508 4.1 2.51 7.874 5.627 10.613A17.168 17.168 0 0 0 30 42.5ZM11.786 23.375h36.43c.284-.002.555-.114.755-.313.201-.2.315-.468.317-.75v-4.25a1.065 1.065 0 0 0-.316-.749 1.084 1.084 0 0 0-.756-.313h-1.072a14.786 14.786 0 0 0-2.494-8.221 14.973 14.973 0 0 0-6.661-5.485l-3.702 7.331v-8.5A2.102 2.102 0 0 0 33.66.621 2.139 2.139 0 0 0 32.144 0h-4.286a2.152 2.152 0 0 0-1.517.62 2.117 2.117 0 0 0-.626 1.505v8.5L22.02 3.286a14.995 14.995 0 0 0-6.662 5.49 14.81 14.81 0 0 0-2.5 8.224h-1.07a1.083 1.083 0 0 0-.756.313c-.2.2-.314.468-.316.75v4.13a1.092 1.092 0 0 0 .639 1.08c.135.063.283.097.432.102ZM42.151 46.75H17.854a17.935 17.935 0 0 0-12.625 5.188A17.634 17.634 0 0 0 0 64.458c0 .939.376 1.84 1.046 2.504A3.588 3.588 0 0 0 3.57 68H56.43c.947 0 1.856-.373 2.526-1.037a3.527 3.527 0 0 0 1.046-2.505 17.573 17.573 0 0 0-1.357-6.776 17.692 17.692 0 0 0-3.869-5.745 17.86 17.86 0 0 0-5.792-3.84 17.98 17.98 0 0 0-6.833-1.347Z" fill="#A68F4B"/></svg>