<svg width="142" height="38" fill="none" xmlns="http://www.w3.org/2000/svg"><path d="M37.852 4.83c.335.369.43.654.299.868-.132.213-.418.19-.848 0a3.233 3.233 0 0 0-1.336-.368 1.64 1.64 0 0 1-1.11-.404 8.62 8.62 0 0 0-3.043-1.948 12.569 12.569 0 0 0-3.687-.807 15.658 15.658 0 0 0-3.794.178c-1.165.186-2.3.521-3.377.997a18.306 18.306 0 0 0-3.58 2.197 37.449 37.449 0 0 0-3.962 3.408 44.59 44.59 0 0 0-3.866 4.228A41.07 41.07 0 0 0 6.254 18a28.971 28.971 0 0 0-2.386 4.988 15.857 15.857 0 0 0-.93 4.869c-.026.401.088.799.321 1.128.22.275.507.488.836.617.36.13.738.206 1.121.226.362.018.724.018 1.086 0a15.03 15.03 0 0 0 3.58-.82 28.544 28.544 0 0 0 3.52-1.508 38.409 38.409 0 0 0 3.294-1.888 51.68 51.68 0 0 0 2.863-1.912c.86-.617 1.623-1.187 2.28-1.65.656-.463 1.133-.832 1.467-1.045a5.4 5.4 0 0 1 1.647-.808 2.91 2.91 0 0 0 1.193-.427l1.528-.974c.358-.202.573-.261.632-.178.06.083 0 .273-.31.546a55.74 55.74 0 0 1-4.01 3.86c-1.396 1.21-2.816 2.374-4.26 3.562a34.037 34.037 0 0 1-2.732 1.924 35.38 35.38 0 0 1-3.365 1.923 30.744 30.744 0 0 1-3.58 1.497c-1.085.385-2.226.59-3.377.605a7.513 7.513 0 0 1-3.09-.546 5.25 5.25 0 0 1-2.065-1.556A6.522 6.522 0 0 1 .324 28.19a9.256 9.256 0 0 1-.322-2.6 15.927 15.927 0 0 1 1.026-5.13 29.193 29.193 0 0 1 2.553-5.332 38.414 38.414 0 0 1 3.7-5.095 41.363 41.363 0 0 1 4.403-4.406 30.755 30.755 0 0 1 4.558-3.241A15.707 15.707 0 0 1 20.586.532c1.473-.305 2.97-.48 4.475-.522a18.69 18.69 0 0 1 8.997 1.983 13.86 13.86 0 0 1 3.794 2.838ZM24.321 22.704a6.72 6.72 0 0 1-.752.582c-.107 0-.155 0-.143-.06.043-.162.108-.317.19-.463.094-.165.178-.336.251-.51a8.293 8.293 0 0 0 .49-1.699c.04-.438.214-.852.5-1.187l.872-1.021c.393-.463.859-.974 1.408-1.52a23.314 23.314 0 0 1 1.837-1.627c.658-.52 1.365-.973 2.113-1.354a1.198 1.198 0 0 1 .954-.071c.344.1.668.26.955.475.26.193.476.44.632.724a.615.615 0 0 1 0 .677c-.403.75-.849 1.475-1.336 2.173a48.792 48.792 0 0 0-1.778 2.648 37.757 37.757 0 0 0-1.611 2.85c-.438.848-.77 1.745-.99 2.672a13.122 13.122 0 0 0 2.314-1.674c.812-.725 1.611-1.52 2.387-2.375s1.563-1.734 2.387-2.625l2.112-2.47a.68.68 0 0 1 .787-.26c.33.092.63.268.871.51.254.263.446.58.561.926a1.184 1.184 0 0 1 0 .95 21.171 21.171 0 0 0-1.682 4.251 27.16 27.16 0 0 0 2.923-1.971 85.988 85.988 0 0 1 2.231-1.674c.167-.115.347-.206.538-.273l.596-.179a5.79 5.79 0 0 0 .728-.273c.278-.119.613-.285 1.002-.498.514-.274.788-.357.812-.274.024.084-.131.321-.501.677-.669.665-1.373 1.378-2.136 2.126a80.316 80.316 0 0 1-2.315 2.197 33.664 33.664 0 0 1-2.387 1.995 13.131 13.131 0 0 1-2.148 1.46.853.853 0 0 1-.728.072 2.74 2.74 0 0 1-.787-.357 2.383 2.383 0 0 1-.645-.593 1.102 1.102 0 0 1-.25-.654 6.308 6.308 0 0 1 .024-1.448 51.95 51.95 0 0 1-2.47 2.375 22.337 22.337 0 0 1-2.888 2.066c-.334.16-.706.221-1.074.178a5.996 5.996 0 0 1-1.408-.273 3.923 3.923 0 0 1-1.193-.653 1.415 1.415 0 0 1-.514-1.116 4.111 4.111 0 0 1 .203-1.532c.18-.577.391-1.144.633-1.698.262-.594.549-1.188.87-1.746l.884-1.627c-.573.546-1.134 1.08-1.683 1.627a37.86 37.86 0 0 1-1.646 1.544Zm23.078-4.572c-.752.879-1.456 1.639-2.053 2.304-.38.484-.895.847-1.48 1.045-.25.015-.5.015-.751 0-.28.015-.55.101-.788.249a4.516 4.516 0 0 0-1.002.653 9.22 9.22 0 0 1-.907.677c-.215.142-.25.083-.12-.154.132-.238.621-.88 1.433-1.9a807.295 807.295 0 0 0 3.794-4.75 51.692 51.692 0 0 0 3.162-4.477.585.585 0 0 1 .633-.202c.28.063.55.167.8.309.295.139.56.337.775.582.215.249.31.45.274.629a26.16 26.16 0 0 0-.727 2.85 7.022 7.022 0 0 1 3.09-1.188 3.115 3.115 0 0 1 1.707.321c.55.262 1.057.606 1.503 1.021a5.4 5.4 0 0 1 1.038 1.283c.224.334.345.726.346 1.128a4.618 4.618 0 0 1-1.002 2.648 8.88 8.88 0 0 1-2.184 1.971c.966-.31 1.9-.707 2.792-1.187.752-.428 1.385-.808 1.91-1.188.525-.38.978-.653 1.348-.902a2.56 2.56 0 0 1 1.086-.475c.15-.015.303-.015.453 0a.947.947 0 0 0 .382-.095 2.13 2.13 0 0 0 .478-.309l.775-.641c.215-.202.346-.273.406-.202.06.071.06.142 0 .202a18.088 18.088 0 0 1-2.387 3.028 21.651 21.651 0 0 1-3.114 2.695 20.856 20.856 0 0 1-3.52 2.02c-1.162.517-2.398.85-3.664.985a2.256 2.256 0 0 1-.823-.083 10.431 10.431 0 0 1-1.193-.368 5.214 5.214 0 0 1-1.062-.535 1.977 1.977 0 0 1-.657-.641l-.19.499c-.358.997-.728 2.018-1.086 3.052a59.492 59.492 0 0 1-1.194 3.123 30.427 30.427 0 0 1-1.456 3.004 15.614 15.614 0 0 1-1.837 2.672.706.706 0 0 1-.656.202 1.338 1.338 0 0 1-.752-.451 2.8 2.8 0 0 1-.573-1.022 3.548 3.548 0 0 1-.107-1.448 24.216 24.216 0 0 1 2.04-7.007 80.244 80.244 0 0 1 3.687-7.184c.144-.273.31-.546.478-.82.157-.266.328-.523.513-.771l.382-1.152Zm8.042-1.128a5.588 5.588 0 0 0-3.472 1.33c-.987.833-1.85 1.8-2.566 2.873a176.63 176.63 0 0 0-.43 1.746c-.142.558-.297 1.188-.477 1.734l.263-.13a11.558 11.558 0 0 0 2.076-1.188 16.095 16.095 0 0 0 2.196-1.77 9.614 9.614 0 0 0 1.754-2.197c.443-.72.67-1.553.656-2.398Zm8.998 7.825a10.22 10.22 0 0 0 3.222-.64 18.591 18.591 0 0 0 3.066-1.461 25.777 25.777 0 0 0 2.816-1.948c.895-.712 1.707-1.378 2.387-2.019a.73.73 0 0 1 .549-.225c.143 0 .12.213-.096.546a6.581 6.581 0 0 0-.751 1.805 2.37 2.37 0 0 1-.43 1.092 13.73 13.73 0 0 1-.978 1.057c-.44.43-.91.828-1.409 1.188-.525.404-1.085.795-1.658 1.187a8.732 8.732 0 0 1-1.73.867 9.125 9.125 0 0 1-1.635.51 9.38 9.38 0 0 1-1.814.25 3.978 3.978 0 0 1-1.384-.309 6.17 6.17 0 0 1-1.504-.867c-.44-.35-.84-.749-1.193-1.187a2.169 2.169 0 0 1-.56-1.188 11.983 11.983 0 0 1 .274-4.203c.316-1.251.81-2.45 1.467-3.563a10.2 10.2 0 0 1 2.387-2.767 10.14 10.14 0 0 1 3.15-1.745 2.062 2.062 0 0 1 1.277 0c.488.156.953.376 1.384.653.406.263.772.583 1.086.95.25.267.4.61.43.974a2.617 2.617 0 0 1-.31 1.187c-.237.48-.504.944-.8 1.39-.31.475-.668.973-1.038 1.484l-1.074 1.449c-.334.427-.573.57-.728.45-.155-.118-.131-.439 0-.95.12-.332.203-.593.25-.783a2.37 2.37 0 0 0 .072-.522 1.184 1.184 0 0 0-.072-.428 3.928 3.928 0 0 1-.119-.475 1.76 1.76 0 0 1 .072-.689c.084-.258.184-.512.298-.76.12-.273.239-.558.358-.867.124-.306.216-.625.275-.95a6.322 6.322 0 0 0-2.387 1.699 12.395 12.395 0 0 0-1.957 2.885c-.557 1.1-.959 2.27-1.193 3.48a8.086 8.086 0 0 0 0 3.443Zm13.364-8.312a22.71 22.71 0 0 1 2.47-2.102 5.764 5.764 0 0 1 1.957-.95 2.54 2.54 0 0 1 1.66.13 5.08 5.08 0 0 1 1.586 1.188l.692-1.033a.68.68 0 0 1 .74-.226c.36.057.704.195 1.002.404.298.19.547.446.728.748a.604.604 0 0 1 0 .748c-.3.416-.572.853-.811 1.307a23.224 23.224 0 0 0-1.193 2.375c-.382.89-.836 1.769-1.194 2.648a10.743 10.743 0 0 0-.716 2.125.425.425 0 0 0 0 .226v.273c.62-.354 1.214-.75 1.778-1.187a59.228 59.228 0 0 0 1.945-1.461l1.802-1.425 1.289-1.045a2.99 2.99 0 0 1 .644-.38c.175-.078.355-.145.537-.202l.597-.214c.257-.096.502-.224.728-.38.179-.118.31-.154.382-.106.071.047 0 .166-.108.38-1.193 1.567-2.386 3.087-3.77 4.571-.37.392-.776.843-1.194 1.354-.454.506-.95.975-1.48 1.401a6.599 6.599 0 0 1-1.658.974 2.686 2.686 0 0 1-1.778.071 3.393 3.393 0 0 1-2.136-1.187 2.554 2.554 0 0 1-.227-1.948 29.405 29.405 0 0 1-1.814 2.375 6.972 6.972 0 0 1-1.765 1.58c-2.065 1.187-3.58.795-4.642-1.306a3.985 3.985 0 0 1-.358-1.651 6.183 6.183 0 0 1 .382-2.292 12.51 12.51 0 0 1 1.3-2.696 17.171 17.171 0 0 1 2.625-3.099v.012Zm.633 7.422a57.86 57.86 0 0 0 3.389-4.026 91.789 91.789 0 0 0 3.066-4.299 2.395 2.395 0 0 0-1.455.38c-.597.355-1.167.752-1.707 1.188-.56.44-1.074.867-1.54 1.294a8.531 8.531 0 0 0-.93.903c-.374.427-.772.962-1.193 1.603A25.463 25.463 0 0 0 76.753 23c-.38.62-.708 1.272-.978 1.947a1.833 1.833 0 0 0-.18 1.354c.18.273.466.202.884-.202l1.957-2.161Zm34.128-4.477c.159-.087.327-.159.501-.214l.477-.13.585-.202c.226-.095.513-.226.847-.404.334-.178.62-.333.68-.25.06.084 0 .274-.37.606a38.37 38.37 0 0 1-2.172 2.446 36.23 36.23 0 0 1-2.637 2.447 24.756 24.756 0 0 1-2.685 1.995 6.098 6.098 0 0 1-2.315.973 5.332 5.332 0 0 1-2.863-.344 3.578 3.578 0 0 1-1.862-1.437 4.102 4.102 0 0 1-.513-1.84c-.06-.708-.06-1.419 0-2.126a1.509 1.509 0 0 1 1.038-1.27c.462-.21.912-.445 1.349-.701.511-.307.997-.653 1.455-1.034.458-.408.877-.857 1.253-1.341.39-.417.687-.91.871-1.45a7.887 7.887 0 0 0-2.685 1.45 21.088 21.088 0 0 0-2.314 2.054 31.456 31.456 0 0 0-2.113 2.375 84.56 84.56 0 0 0-1.98 2.553 44.502 44.502 0 0 0-1.54 2.173 19.681 19.681 0 0 1-.823 1.188 1.356 1.356 0 0 1-.93.653 2.614 2.614 0 0 1-2.113-.57.535.535 0 0 1-.179-.677l4.272-7.683a30.598 30.598 0 0 1-2.59 2.209 26.543 26.543 0 0 1-2.863 1.9c-.37.237-.728.463-1.098.653-.37.19-.644.344-.835.44-.191.094-.299.094-.299 0 0-.096.167-.274.501-.606.6-.583 1.155-1.21 1.66-1.877.33-.436.6-.915.799-1.425a3.302 3.302 0 0 1 1.11-1.472l2.386-2.15a74.488 74.488 0 0 0 2.935-2.909 29.007 29.007 0 0 0 2.972-3.776c.572-1.188 1.193-2.375 1.658-3.646.466-1.27.991-2.47 1.48-3.657.083-.214.262-.285.537-.226.32.08.612.245.847.475.3.268.558.58.764.926.243.346.349.769.298 1.188-.03.494-.131.982-.298 1.448a8.841 8.841 0 0 1-.585 1.378 7.421 7.421 0 0 1-.704 1.187c-.239.321-.441.57-.597.749-.262.605-.501 1.187-.704 1.567-.202.38-.393.843-.608 1.188-.215.344-.43.807-.633 1.187-.202.38-.477.926-.775 1.496.732-.453 1.498-.85 2.291-1.187a6.231 6.231 0 0 1 2.613-.404c.328.018.646.111.931.273a4.38 4.38 0 0 1 1.05.7c.314.282.576.616.776.986.19.34.245.738.155 1.117a6.265 6.265 0 0 1-.824 1.757 9.783 9.783 0 0 1-1.384 1.698 10.59 10.59 0 0 1-1.754 1.318c-.584.396-1.208.73-1.861.998-.065.474.045.955.31 1.354.274.451.489.82.644 1.092a7.268 7.268 0 0 0 2.255-.89 34.736 34.736 0 0 0 2.459-1.604 66.373 66.373 0 0 0 2.195-1.626 10.1 10.1 0 0 1 1.552-1.081v.012Zm7.588-.998c-.362.521-.762 1.017-1.193 1.485-.491.51-1.013.99-1.563 1.437a13.48 13.48 0 0 1-1.646 1.187c-.462.31-.97.546-1.504.7 0 .334.024.668.072.998.031.293.133.575.298.82a.97.97 0 0 0 .955.534c.417-.04.823-.16 1.193-.356.766-.39 1.5-.838 2.195-1.342a26.532 26.532 0 0 0 2.208-1.734 47.899 47.899 0 0 0 2.112-1.971 91.05 91.05 0 0 0 1.885-1.924c.239-.237.418-.32.525-.25.107.072.096.226 0 .44-.286.63-.538 1.277-.752 1.936-.167.546-.31.997-.429 1.365-.124.36-.301.7-.525 1.01-.33.498-.692.974-1.086 1.425-.472.55-.982 1.065-1.528 1.544a8.745 8.745 0 0 1-1.885 1.282 6.295 6.295 0 0 1-2.171.653 4.917 4.917 0 0 1-2.387-.309c-1-.325-1.848-1-2.386-1.9a5.807 5.807 0 0 1-.752-2.755 8.978 8.978 0 0 1 .453-3.063c.299-.98.699-1.928 1.194-2.827.253-.456.54-.892.859-1.306.368-.491.766-.96 1.193-1.401.402-.433.841-.83 1.313-1.188.379-.294.826-.49 1.3-.57.554-.005 1.1.13 1.587.392.512.22.987.517 1.408.879.314.318.493.742.501 1.188a2.79 2.79 0 0 1-.203 1.27c-.176.413-.388.81-.632 1.188l-.609 1.163Zm-4.999 1.568a18.59 18.59 0 0 0 2.017-2.304 11.706 11.706 0 0 0 1.527-2.72 4.13 4.13 0 0 0-.847.773c-.286.33-.55.679-.788 1.045-.25.356-.477.712-.68 1.056-.203.345-.382.63-.501.844l-.728 1.306Zm25.213-1.188c.49-.356.764-.51.824-.427.059.083-.108.332-.501.784a75.422 75.422 0 0 1-2.268 2.624 47.224 47.224 0 0 1-2.386 2.47 26.082 26.082 0 0 1-2.387 2.054 9.78 9.78 0 0 1-2.386 1.354 3.426 3.426 0 0 1-1.217 1.582 3.448 3.448 0 0 1-1.898.639 5.022 5.022 0 0 1-2.028-.356 5.44 5.44 0 0 1-1.862-1.188 3.96 3.96 0 0 1-.453-.594 2.71 2.71 0 0 1-.334-.76 1.756 1.756 0 0 1-.072-.772.95.95 0 0 1 .406-.641.91.91 0 0 1 .572-.202h.812c.286 0 .561 0 .823.095l.609.107h1.193c.372.003.744-.025 1.11-.083.095-.453.144-.915.143-1.378v-3.74c0-.831-.119-1.663-.203-2.506a44.156 44.156 0 0 1-3.472 3.349 105.007 105.007 0 0 1-3.389 2.802c-.43.333-.621.38-.597.155.072-.306.215-.591.418-.831.209-.275.389-.57.537-.88.15-.304.281-.617.394-.937l.286-.808c.073-.211.2-.4.37-.546.394-.392 1.05-1.188 1.981-2.209a30.979 30.979 0 0 0 2.971-4.393.549.549 0 0 1 .585-.274c.292.04.574.141.823.297.275.168.526.367.752.594.179.145.311.34.382.558.274 1.603.525 3.254.751 4.976.225 1.68.264 3.38.12 5.07a9.198 9.198 0 0 0 1.79-1.187c.62-.499 1.193-1.01 1.814-1.52.62-.51 1.193-.998 1.706-1.449a7.484 7.484 0 0 1 1.503-.997 14.4 14.4 0 0 1 .907-.357c.315-.104.61-.261.871-.463v-.012Z" fill="#141414"/></svg>