<svg width="51" height="68" fill="none" xmlns="http://www.w3.org/2000/svg"><g clip-path="url(#a)"><path d="M42.5 0h-34A8.5 8.5 0 0 0 0 8.5v51A8.5 8.5 0 0 0 8.5 68h34a8.5 8.5 0 0 0 8.5-8.5v-51A8.5 8.5 0 0 0 42.5 0ZM27.625 46.75h-17a2.125 2.125 0 0 1 0-4.25h17a2.125 2.125 0 0 1 0 4.25ZM40.375 34h-29.75a2.125 2.125 0 0 1 0-4.25h29.75a2.125 2.125 0 0 1 0 4.25Zm0-12.75h-29.75a2.125 2.125 0 0 1 0-4.25h29.75a2.125 2.125 0 0 1 0 4.25Z" fill="#A68F4B"/></g><defs><clipPath id="a"><path fill="#fff" d="M0 0h51v68H0z"/></clipPath></defs></svg>