<svg width="68" height="68" fill="none" xmlns="http://www.w3.org/2000/svg"><path d="M0 4.25A4.25 4.25 0 0 1 4.25 0h17a4.25 4.25 0 0 1 4.25 4.25v51a12.75 12.75 0 0 1-25.5 0v-51ZM17 8.5H8.5V17H17V8.5ZM8.5 34H17v-8.5H8.5V34Zm4.25 24.438a3.187 3.187 0 1 0-3.188-3.188 3.18 3.18 0 0 0 3.188 3.188Zm17-3.188V20.453l10.014-10.01a4.256 4.256 0 0 1 6.017 0L57.8 22.46a4.257 4.257 0 0 1 0 6.016l-28.103 28.09c.04-.426.053-.877.053-1.315ZM49.778 42.5H63.75A4.25 4.25 0 0 1 68 46.75v17A4.25 4.25 0 0 1 63.75 68H24.278l25.5-25.5Z" fill="#A68F4B"/></svg>