<svg width="68" height="68" fill="none" xmlns="http://www.w3.org/2000/svg"><path d="M46.75 12.75a12.652 12.652 0 0 1-1.169 5.339l7.013 12.113a25.366 25.366 0 0 1-11.74 7.118L34 25.5h-.119l-8.925 15.606A29.96 29.96 0 0 0 34 42.5a29.43 29.43 0 0 0 23.228-11.275 4.285 4.285 0 0 1 6.628 5.431A38.341 38.341 0 0 1 34 51a38.155 38.155 0 0 1-13.374-2.404l-7.524 12.99a6.4 6.4 0 0 1-2.666 2.51l-7.36 3.679A2.125 2.125 0 0 1 0 65.875v-7.357a6.45 6.45 0 0 1 .859-3.201l7.968-13.76a39.21 39.21 0 0 1-4.683-4.9 4.287 4.287 0 0 1 6.633-5.433 19.95 19.95 0 0 0 2.42 2.789l9.222-15.924a12.75 12.75 0 1 1 24.331-5.34ZM34 17a4.25 4.25 0 1 0 0-8.5 4.25 4.25 0 0 0 0 8.5Zm15.42 35.315a41.31 41.31 0 0 0 11.913-7.026l5.804 10.028c.566.972.863 2.077.863 3.201v7.357a2.125 2.125 0 0 1-3.081 1.9l-7.358-3.68a6.48 6.48 0 0 1-2.67-2.51l-5.47-9.27Z" fill="#A68F4B"/></svg>